# Object "shield":
# ComRec:
g Box01
# No. points 65:
v -1.3187 0.00100 -13.3653
v -5.46158 0.00100 4.57673
v -1.3187 1.09024 -13.3653
v -0.47334 1.09024 16.12
v -0.83222 1.21436 -11.806
v -0.83222 1.21437 11.804
v -0.83222 1.36332 -11.806
v -0.83222 1.36332 11.804
v -0.35358 1.35091 -10.2719
v -0.35359 1.35091 10.2699
v -0.19646 1.35091 -9.76824
v -0.19646 1.35091 9.76624
v 0.06260 1.35091 -8.93791
v 0.06259 1.35091 8.93591
v -0.06060 1.35091 8.93591
v -0.06059 1.35091 -8.93791
v -0.47241 1.35399 -9.02134
v -0.47241 1.35399 9.01934
v -0.71339 1.36024 9.79173
v -0.71339 1.36024 -9.79373
v -0.28794 1.35091 -4.55757
v -5.46158 0.99210 -18.2828
v -6.30694 0.48213 -18.0563
v 0.00100 0.00100 -13.3653
v 0.00100 0.00100 11.6536
v 0.00100 1.09024 -13.3653
v 0.00100 1.21436 -11.806
v 0.00100 1.36332 11.804
v 0.00100 1.36332 -11.806
v 0.00100 1.35091 10.2699
v 0.00100 1.35091 -10.2719
v 0.00100 1.35091 8.93591
v 1.3207 0.00100 -13.3653
v 5.46358 0.00100 4.57673
v 0.00100 1.09024 15.3911
v 0.47533 1.09024 16.12
v 1.3207 1.09024 -13.3653
v 0.83422 1.21437 11.804
v 0.83422 1.21436 -11.806
v 0.00100 1.21437 11.804
v 0.83422 1.36332 11.804
v 0.83422 1.36332 -11.806
v 0.47441 1.35399 -9.02134
v 0.47441 1.35399 9.01934
v 0.71539 1.36024 9.79173
v 0.71539 1.36024 -9.79373
v 0.35558 1.35091 10.2699
v 0.00100 1.35091 9.76624
v 0.19846 1.35091 9.76624
v 0.19846 1.35091 -9.76824
v 0.00100 1.35091 9.13333
v 0.00100 1.35091 -9.13533
v 0.00100 1.35091 9.13333
v 0.06259 1.35091 8.93591
v -0.06060 1.35091 8.93591
v 0.00100 1.35091 -9.76824
v -0.06059 1.35091 -8.93791
v 0.00100 1.35091 -8.93791
v 0.06260 1.35091 -8.93791
v 0.35559 1.35091 -10.2719
v 0.28994 1.35091 -4.55757
v 5.46358 0.99210 -18.2828
v 6.30894 0.48213 -18.0563
v 0.00100 1.35091 -8.93791
v 0.00100 1.35091 8.93591

# No. normals 289:
vn 0 -1 0
vn 0 -1 0
vn 0.39497 -0.88200 0.25705
vn -0.26207 -0.94361 0.20229
vn -0.46679 -0.88426 0.01338
vn -0.24723 0.96896 0
vn 0 0.999402 0.03458
vn 0.03914 0.99891 0.02547
vn -1 0 0
vn -1 0 0
vn 0 0 1
vn 0 0 1
vn -0.02593 -0.999664 0
vn -0.02593 -0.999664 0
vn 0 0.999967 -0.00809
vn 0 0.999967 -0.00809
vn 0 1 0
vn 0 1 0
vn 0 1 0
vn 0 1 0
vn 0 1 0
vn 0 1 0
vn 0 0 0
vn 0 -1 0
vn -0.32623 0.93980 -0.10178
vn 0 -1 0
vn 0 -1 0
vn 0 -1 0
vn 0 1 0
vn 0 1 0
vn 0.02593 0.999664 0
vn 0.02593 0.999664 0
vn 0.02592 0.999664 0
vn -0.02593 -0.999664 0
vn 0.02593 0.999664 0
vn 0.02592 0.999664 0
vn 0.02593 0.999664 0
vn -0.02593 -0.999664 0
vn 0 1 0
vn 0 1 0
vn 0 1 0
vn 0 1 0
vn -0.30339 0.95197 0.04127
vn -0.02451 0.999699 0.00070
vn 0.76477 0 -0.64430
vn -0.07898 -0.99671 -0.01824
vn -0.50885 0.86005 0.03729
vn 0.36154 -0.80685 -0.46721
vn 0 1 0
vn 0 1 0
vn 0 0 -1
vn 0 0 -1
vn 0 0.99685 -0.07935
vn 0 0.99685 -0.07935
vn 0 0 -1
vn 0 0 -1
vn 0 0.999967 0.00809
vn 0 0.999967 0.00809
vn 0 1 0
vn 0 1 0
vn 0 1 0
vn 0 1 0
vn 0 -1 0
vn 0 -1 0
vn 0.26207 -0.94361 0.20229
vn -0.39497 -0.88200 0.25705
vn 0.24723 0.96896 0
vn 0.46679 -0.88426 0.01338
vn -0.03914 0.99891 0.02547
vn 0 0.999402 0.03458
vn 1 0 0
vn 1 0 0
vn 0 0 1
vn 0 0 1
vn 0.02593 -0.999664 0
vn 0.02593 -0.999664 0
vn 0 0.999967 -0.00809
vn 0 0.999967 -0.00809
vn 0 1 0
vn 0 1 0
vn 0 1 0
vn 0 1 0
vn 0.31827 0.94279 -0.09930
vn 0 0 0
vn 0 -1 0
vn 0 1 0
vn 0 1 0
vn 0 1 0
vn 0 -1 0
vn 0 -1 0
vn 0 -1 0
vn 0 1 0
vn -0.02593 0.999664 0
vn -0.02593 0.999664 0
vn 0.02593 -0.999664 0
vn -0.02592 0.999664 0
vn -0.02592 0.999664 0
vn -0.02593 0.999664 0
vn 0.02593 -0.999664 0
vn -0.02593 0.999664 0
vn 0 1 0
vn 0 1 0
vn 0 1 0
vn 0 1 0
vn 0.30339 0.95197 0.04127
vn 0.02451 0.999699 0.00070
vn -0.76477 0 -0.64430
vn 0.07898 -0.99671 -0.01824
vn 0.50885 0.86005 0.03729
vn -0.36154 -0.80685 -0.46721
vn 0 1 0
vn 0 1 0
vn 0 0 -1
vn 0 0 -1
vn 0 0.99685 -0.07935
vn 0 0.99685 -0.07935
vn 0 0 -1
vn 0 0 -1
vn 0 0.999967 0.00809
vn 0 0.999967 0.00809
vn 0 1 0
vn 0 1 0
vn 0 1 0
vn 0 1 0
vn 0.09882 -0.98051 -0.16978
vn 0 0 -1
vn 0.76477 0 -0.64430
vn -0.08614 -0.99520 0.04649
vn -0.40871 0.91181 0.03953
vn -0.46679 -0.88426 0.01338
vn -0.12468 0.99139 -0.04002
vn 0 0 -1
vn 0.76477 0 -0.64430
vn -0.02451 0.999699 0.00070
vn 0.07042 -0.96737 0.24340
vn -0.16565 0.98596 0.02121
vn 0.03914 0.99891 0.02547
vn -0.46679 -0.88426 0.01338
vn -0.08304 0.99512 -0.05331
vn 0 0 -1
vn -1 0 0
vn -0.46679 -0.88426 0.01338
vn 0 0 1
vn -1 0 0
vn 0.01958 0.999357 0.03003
vn -0.24723 0.96896 0
vn -1 0 0
vn 0.01296 0.999908 0.00405
vn 0 0 -1
vn -0.02593 -0.999664 0
vn 0.02593 0.999664 0
vn -1 0 0
vn 0.01728 0.999847 -0.00270
vn 0 0 1
vn 0.00741 0.99997 0.00231
vn 0.00972 0.999951 -0.00202
vn -0.02593 -0.999664 0
vn 0 1 0
vn 0 -1 0
vn -0.03647 0.99927 -0.01138
vn 0 -1 0
vn 0 -1 0
vn 1 0 0
vn -0.32623 0.93980 -0.10178
vn 0 -1 0
vn 0 1 0
vn 0 1 0
vn 0 -1 0
vn 1 0 0
vn 0 -1 0
vn 0 1 0
vn 0 1 0
vn 0 1 0
vn 0 -1 0
vn -0.02593 -0.999664 0
vn 0.02593 0.999664 0
vn -0.02593 -0.999664 0
vn 0.02593 0.999664 0
vn -0.02593 -0.999664 0
vn 0.02592 0.999664 0
vn -0.02593 -0.999664 0
vn 0.02593 0.999664 0
vn 0 1 0
vn -0.28513 0.95811 0.02701
vn 0.36154 -0.80685 -0.46721
vn 0.76477 0 -0.64430
vn 0.14958 -0.95477 -0.25699
vn -0.50885 0.86005 0.03729
vn 0 -1 0
vn 0 0 -1
vn 0 -0.98704 0.16046
vn 0 0 -1
vn 0 0.99685 -0.07935
vn 0 0.99685 -0.07935
vn 0 0 -1
vn 0 0 1
vn 0 0.999967 -0.00809
vn 0 0 -1
vn 0 0.999967 0.00809
vn 0 0.999996 -0.00270
vn 0 0.999996 0.00270
vn 1 0 0
vn 1 0 0
vn -0.09882 -0.98051 -0.16978
vn 0 0 -1
vn -0.76477 0 -0.64430
vn 0.08614 -0.99520 0.04649
vn 0.40871 0.91181 0.03953
vn 0.39497 -0.88200 0.25705
vn 0 0.999549 0.03004
vn -0.39497 -0.88200 0.25705
vn -0.07042 -0.96737 0.24340
vn 0.16565 0.98596 0.02121
vn -0.03914 0.99891 0.02547
vn 0.46679 -0.88426 0.01338
vn 0.12468 0.99139 -0.04002
vn 0 0 -1
vn -0.76477 0 -0.64430
vn 0.02451 0.999699 0.00070
vn 0.46679 -0.88426 0.01338
vn 0.24723 0.96896 0
vn 0 0 1
vn 1 0 0
vn -0.01958 0.999357 0.03003
vn 0.46679 -0.88426 0.01338
vn 0.08304 0.99512 -0.05331
vn 0 0 -1
vn 1 0 0
vn 0 0.999402 0.03458
vn 0 0 1
vn 1 0 0
vn -0.01728 0.999847 -0.00270
vn 0 0 1
vn 1 0 0
vn -0.01296 0.999908 0.00405
vn 0 0 -1
vn 0.02593 -0.999664 0
vn -0.02593 0.999664 0
vn 0.02593 -0.999664 0
vn -0.02593 0.999664 0
vn 0.02593 -0.999664 0
vn -0.02593 0.999664 0
vn 0.02593 -0.999664 0
vn -0.02592 0.999664 0
vn 0.02593 -0.999664 0
vn -0.02593 0.999664 0
vn -0.00972 0.999951 -0.00202
vn 0.02593 -0.999664 0
vn 0 1 0
vn 0.03556 0.999306 -0.01110
vn 0 -1 0
vn 0 1 0
vn 0 -1 0
vn 0.05347 0.99843 -0.01668
vn 0 1 0
vn 0 -1 0
vn 0 -1 0
vn 0 1 0
vn 0 1 0
vn 0 -1 0
vn 0 -1 0
vn -0.05483 0.99835 -0.01711
vn 1 0 0
vn 0 1 0
vn 0 1 0
vn 0 -1 0
vn 0.31827 0.94279 -0.09930
vn 0 -1 0
vn 1 0 0
vn 0 1 0
vn 0 -1 0
vn 0 1 0
vn 0 -1 0
vn 0 1 0
vn 0 1 0
vn 0 1 0
vn 0 -1 0
vn 0 -1 0
vn -0.00741 0.99997 0.00231
vn 0 1 0
vn 0.28513 0.95811 0.02701
vn -0.36154 -0.80685 -0.46721
vn -0.76477 0 -0.64430
vn -0.14958 -0.95477 -0.25699
vn 0.50885 0.86005 0.03729
vn 0 -1 0
vn 0 1 0
vn 0 1 0
vn 0 1 0

# No. texture coordinates 65:
vt 0.14330 0.39550
vt 0.66430 0.06744
vt 0.14330 0.39550
vt 0.999501 0.46244
vt 0.18857 0.43402
vt 0.87417 0.43402
vt 0.18857 0.43402
vt 0.87417 0.43402
vt 0.23312 0.47192
vt 0.82962 0.47192
vt 0.24775 0.48436
vt 0.81500 0.48436
vt 0.27186 0.50488
vt 0.79089 0.50488
vt 0.79089 0.49512
vt 0.27186 0.49512
vt 0.26944 0.46251
vt 0.79331 0.46251
vt 0.81574 0.44343
vt 0.24701 0.44343
vt 0.39906 0.47712
vt 0.00050 0.06744
vt 0.00708 0.00050
vt 0.14330 0.50000
vt 0.86980 0.50000
vt 0.14330 0.50000
vt 0.18857 0.50000
vt 0.87417 0.50000
vt 0.18857 0.50000
vt 0.82962 0.50000
vt 0.23312 0.50000
vt 0.79089 0.50000
vt 0.14330 0.60450
vt 0.66430 0.93256
vt 0.97834 0.50000
vt 0.999501 0.53756
vt 0.14330 0.60450
vt 0.87417 0.56598
vt 0.18857 0.56598
vt 0.87417 0.50000
vt 0.87417 0.56598
vt 0.18857 0.56598
vt 0.26944 0.53749
vt 0.79331 0.53749
vt 0.81574 0.55657
vt 0.24701 0.55657
vt 0.82962 0.52808
vt 0.81500 0.50000
vt 0.81500 0.51564
vt 0.24775 0.51564
vt 0.79662 0.50000
vt 0.26613 0.50000
vt 0.79662 0.50000
vt 0.79089 0.50488
vt 0.79089 0.49512
vt 0.24775 0.50000
vt 0.27186 0.49512
vt 0.27186 0.50000
vt 0.27186 0.50488
vt 0.23312 0.52808
vt 0.39906 0.52288
vt 0.00050 0.93256
vt 0.00708 0.999501
vt 0.27186 0.50000
vt 0.79089 0.50000

# No. faces 124:
f 24/24/189 25/25/191 2/2/128
f 2/2/128 1/1/125 24/24/189
f 25/25/191 35/35/209 4/4/135
f 4/4/135 2/2/128 25/25/191
f 3/3/130 4/4/138 6/6/142
f 6/6/146 5/5/139 3/3/131
f 35/35/210 40/40/229 6/6/145
f 6/6/145 4/4/137 35/35/210
f 5/5/141 6/6/144 8/8/152
f 8/8/152 7/7/147 5/5/141
f 40/40/230 28/28/196 8/8/154
f 8/8/154 6/6/143 40/40/230
f 17/17/175 18/18/177 19/19/179
f 19/19/179 20/20/181 17/17/175
f 28/28/197 30/30/200 10/10/156
f 10/10/156 8/8/153 28/28/197
f 30/30/200 48/48/249 12/12/160
f 12/12/160 10/10/156 30/30/200
f 12/12/160 53/53/262 52/52/255
f 52/52/255 11/11/158 12/12/160
f 12/12/160 48/48/249 51/51/254
f 12/12/160 51/51/254 15/15/166
f 15/15/169 32/32/202 14/14/163
f 12/12/161 15/15/168 14/14/165
f 12/12/160 14/14/164 53/53/262
f 52/52/261 13/13/162 64/64/286
f 52/52/261 64/64/286 16/16/170
f 11/11/159 52/52/260 16/16/174
f 56/56/270 11/11/158 16/16/173
f 56/56/270 16/16/173 52/52/258
f 7/7/151 8/8/153 18/18/178
f 18/18/178 17/17/176 7/7/151
f 18/18/178 8/8/153 10/10/156
f 10/10/157 19/19/179 18/18/177
f 10/10/156 9/9/155 20/20/182
f 20/20/182 19/19/180 10/10/156
f 20/20/182 9/9/155 7/7/148
f 7/7/150 17/17/175 20/20/181
f 9/9/155 10/10/156 21/21/183
f 10/10/156 12/12/160 21/21/183
f 12/12/160 11/11/158 21/21/183
f 11/11/158 9/9/155 21/21/183
f 2/2/129 4/4/136 22/22/184
f 4/4/136 3/3/134 22/22/184
f 3/3/133 1/1/127 22/22/186
f 1/1/125 2/2/128 23/23/187
f 2/2/129 22/22/184 23/23/188
f 22/22/185 1/1/125 23/23/187
f 16/16/172 15/15/167 65/65/288
f 65/65/288 58/58/272 16/16/172
f 1/1/126 3/3/132 26/26/192
f 26/26/192 24/24/190 1/1/126
f 26/26/193 3/3/131 5/5/139
f 5/5/139 27/27/194 26/26/193
f 5/5/140 7/7/149 29/29/198
f 29/29/198 27/27/195 5/5/140
f 29/29/199 7/7/148 9/9/155
f 9/9/155 31/31/201 29/29/199
f 31/31/201 9/9/155 11/11/158
f 11/11/158 56/56/270 31/31/201
f 16/16/171 15/15/166 51/51/254
f 51/51/254 52/52/259 16/16/171
f 24/24/189 33/33/204 34/34/207
f 34/34/207 25/25/191 24/24/189
f 25/25/191 34/34/207 36/36/212
f 36/36/212 35/35/211 25/25/191
f 37/37/216 39/39/226 38/38/221
f 38/38/225 36/36/215 37/37/220
f 35/35/210 36/36/214 38/38/224
f 38/38/224 40/40/229 35/35/210
f 39/39/228 42/42/234 41/41/231
f 41/41/231 38/38/223 39/39/228
f 40/40/230 38/38/222 41/41/233
f 41/41/233 28/28/196 40/40/230
f 43/43/239 46/46/245 45/45/243
f 45/45/243 44/44/241 43/43/239
f 28/28/197 41/41/232 47/47/247
f 47/47/247 30/30/200 28/28/197
f 30/30/200 47/47/247 49/49/250
f 49/49/250 48/48/249 30/30/200
f 49/49/250 50/50/252 52/52/259
f 52/52/259 51/51/254 49/49/250
f 49/49/250 51/51/254 55/55/267
f 55/55/269 32/32/203 54/54/263
f 49/49/251 55/55/268 54/54/266
f 49/49/250 54/54/264 53/53/262
f 49/49/250 53/53/262 48/48/249
f 56/56/270 52/52/258 59/59/274
f 58/58/273 57/57/271 52/52/257
f 59/59/278 58/58/273 52/52/257
f 59/59/277 52/52/256 50/50/253
f 56/56/270 59/59/274 50/50/252
f 42/42/238 43/43/240 44/44/242
f 44/44/242 41/41/232 42/42/238
f 44/44/241 45/45/243 47/47/248
f 47/47/247 41/41/232 44/44/242
f 47/47/247 45/45/244 46/46/246
f 46/46/246 60/60/279 47/47/247
f 46/46/245 43/43/239 42/42/237
f 42/42/235 60/60/279 46/46/246
f 60/60/279 61/61/280 47/47/247
f 47/47/247 61/61/280 49/49/250
f 49/49/250 61/61/280 50/50/252
f 50/50/252 61/61/280 60/60/279
f 34/34/208 62/62/281 36/36/213
f 36/36/213 62/62/281 37/37/219
f 37/37/218 62/62/283 33/33/206
f 33/33/204 63/63/284 34/34/207
f 34/34/208 63/63/285 62/62/281
f 62/62/282 63/63/284 33/33/204
f 59/59/276 64/64/287 65/65/289
f 65/65/289 54/54/265 59/59/276
f 33/33/205 24/24/190 26/26/192
f 26/26/192 37/37/217 33/33/205
f 26/26/193 27/27/194 39/39/226
f 39/39/226 37/37/216 26/26/193
f 39/39/227 27/27/195 29/29/198
f 29/29/198 42/42/236 39/39/227
f 29/29/199 31/31/201 60/60/279
f 60/60/279 42/42/235 29/29/199
f 31/31/201 56/56/270 50/50/252
f 50/50/252 60/60/279 31/31/201
f 59/59/275 52/52/255 53/53/262
f 53/53/262 54/54/264 59/59/275


# ComRec:
g Box02
# No. points 8:
v -4.69431 0.97138 -4.31928
v 4.69431 0.97138 -4.31928
v -4.69431 0.97138 -5.12804
v 4.69431 0.97138 -5.12804
v -4.69431 1.64804 -4.31928
v 4.69431 1.64804 -4.31928
v -4.69431 1.64804 -5.12804
v 4.69431 1.64804 -5.12804

# No. normals 36:
vn 0 -1 0
vn 0 -1 0
vn 0 1 0
vn 0 1 0
vn 0 0 1
vn 0 0 1
vn 1 0 0
vn 1 0 0
vn 0 0 -1
vn 0 0 -1
vn -1 0 0
vn -1 0 0
vn 0 -1 0
vn -1 0 0
vn 0 0 1
vn 0 -1 0
vn 1 0 0
vn 0 0 1
vn 0 -1 0
vn -1 0 0
vn 0 0 -1
vn 0 -1 0
vn 0 0 -1
vn 1 0 0
vn 0 1 0
vn -1 0 0
vn 0 0 1
vn 0 1 0
vn 1 0 0
vn 0 0 1
vn 0 1 0
vn -1 0 0
vn 0 0 -1
vn 0 1 0
vn 0 0 -1
vn 1 0 0

# No. texture coordinates 8:
vt 0.00050 0.00050
vt 0.999501 0.00050
vt 0.00050 0.9995
vt 0.999501 0.999498
vt 0.00050 0.00050
vt 0.999501 0.00050
vt 0.00050 0.9995
vt 0.999501 0.999498

# No. faces 12:
f 66/66/302 68/68/308 69/69/311
f 69/69/311 67/67/305 66/66/302
f 70/70/314 71/71/317 73/73/323
f 73/73/323 72/72/320 70/70/314
f 66/66/304 67/67/307 71/71/319
f 71/71/319 70/70/316 66/66/304
f 67/67/306 69/69/313 73/73/325
f 73/73/325 71/71/318 67/67/306
f 69/69/312 68/68/310 72/72/322
f 72/72/322 73/73/324 69/69/312
f 68/68/309 66/66/303 70/70/315
f 70/70/315 72/72/321 68/68/309


# ComRec:
g Box03
# No. points 8:
v -0.47924 0.00100 8.82165
v 0.48124 0.00100 8.82165
v -0.47924 0.00100 -8.82366
v 0.48124 0.00100 -8.82366
v -0.47924 1.72473 8.82165
v 0.48124 1.72473 8.82165
v -0.47924 1.72473 -8.82366
v 0.48124 1.72473 -8.82366

# No. normals 36:
vn 0 -1 0
vn 0 -1 0
vn 0 1 0
vn 0 1 0
vn 0 0 1
vn 0 0 1
vn 1 0 0
vn 1 0 0
vn 0 0 -1
vn 0 0 -1
vn -1 0 0
vn -1 0 0
vn 0 -1 0
vn -1 0 0
vn 0 0 1
vn 0 -1 0
vn 1 0 0
vn 0 0 1
vn 0 -1 0
vn -1 0 0
vn 0 0 -1
vn 0 -1 0
vn 0 0 -1
vn 1 0 0
vn 0 1 0
vn -1 0 0
vn 0 0 1
vn 0 1 0
vn 1 0 0
vn 0 0 1
vn 0 1 0
vn -1 0 0
vn 0 0 -1
vn 0 1 0
vn 0 0 -1
vn 1 0 0

# No. texture coordinates 8:
vt 0.00050 0.00050
vt 0.999497 0.00050
vt 0.00050 0.999501
vt 0.9995 0.9995
vt 0.00050 0.00050
vt 0.999497 0.00050
vt 0.00050 0.999501
vt 0.9995 0.9995

# No. faces 12:
f 74/74/338 76/76/344 77/77/347
f 77/77/347 75/75/341 74/74/338
f 78/78/350 79/79/353 81/81/359
f 81/81/359 80/80/356 78/78/350
f 74/74/340 75/75/343 79/79/355
f 79/79/355 78/78/352 74/74/340
f 75/75/342 77/77/349 81/81/361
f 81/81/361 79/79/354 75/75/342
f 77/77/348 76/76/346 80/80/358
f 80/80/358 81/81/360 77/77/348
f 76/76/345 74/74/339 78/78/351
f 78/78/351 80/80/357 76/76/345


